<svg xmlns="http://www.w3.org/2000/svg" xmlns:xlink="http://www.w3.org/1999/xlink" width="500" zoomAndPan="magnify" viewBox="0 0 375 374.999991" height="500" preserveAspectRatio="xMidYMid meet" version="1.0"><defs><g/><clipPath id="bd29ff3f48"><path d="M 106 38 L 270 38 L 270 328 L 106 328 Z M 106 38 " clip-rule="nonzero"/></clipPath><clipPath id="8440d70389"><path d="M 64.863281 15.492188 L 352.972656 56.398438 L 309.957031 359.359375 L 21.847656 318.453125 Z M 64.863281 15.492188 " clip-rule="nonzero"/></clipPath><clipPath id="8be9346b17"><path d="M 64.863281 15.492188 L 352.972656 56.398438 L 309.957031 359.359375 L 21.847656 318.453125 Z M 64.863281 15.492188 " clip-rule="nonzero"/></clipPath><clipPath id="69c565dc20"><path d="M 43 102 L 333 102 L 333 265 L 43 265 Z M 43 102 " clip-rule="nonzero"/></clipPath><clipPath id="dd2ed2c9b9"><path d="M 64.863281 15.492188 L 352.972656 56.398438 L 309.957031 359.359375 L 21.847656 318.453125 Z M 64.863281 15.492188 " clip-rule="nonzero"/></clipPath><clipPath id="e1058c39ee"><path d="M 64.863281 15.492188 L 352.972656 56.398438 L 309.957031 359.359375 L 21.847656 318.453125 Z M 64.863281 15.492188 " clip-rule="nonzero"/></clipPath><clipPath id="8c1714d0cc"><path d="M 61 75 L 315 75 L 315 292 L 61 292 Z M 61 75 " clip-rule="nonzero"/></clipPath><clipPath id="7c2b45984c"><path d="M 64.863281 15.492188 L 352.972656 56.398438 L 309.957031 359.359375 L 21.847656 318.453125 Z M 64.863281 15.492188 " clip-rule="nonzero"/></clipPath><clipPath id="4b894a3fff"><path d="M 64.863281 15.492188 L 352.972656 56.398438 L 309.957031 359.359375 L 21.847656 318.453125 Z M 64.863281 15.492188 " clip-rule="nonzero"/></clipPath><clipPath id="a904ed34fb"><path d="M 80 57 L 296 57 L 296 310 L 80 310 Z M 80 57 " clip-rule="nonzero"/></clipPath><clipPath id="37608ebe61"><path d="M 64.863281 15.492188 L 352.972656 56.398438 L 309.957031 359.359375 L 21.847656 318.453125 Z M 64.863281 15.492188 " clip-rule="nonzero"/></clipPath><clipPath id="f5a6706c53"><path d="M 64.863281 15.492188 L 352.972656 56.398438 L 309.957031 359.359375 L 21.847656 318.453125 Z M 64.863281 15.492188 " clip-rule="nonzero"/></clipPath><clipPath id="3c0cbab363"><path d="M 58 259 L 82 259 L 82 283 L 58 283 Z M 58 259 " clip-rule="nonzero"/></clipPath><clipPath id="92e9c4900c"><path d="M 64.863281 15.492188 L 352.972656 56.398438 L 309.957031 359.359375 L 21.847656 318.453125 Z M 64.863281 15.492188 " clip-rule="nonzero"/></clipPath><clipPath id="4f30b61c2d"><path d="M 64.863281 15.492188 L 352.972656 56.398438 L 309.957031 359.359375 L 21.847656 318.453125 Z M 64.863281 15.492188 " clip-rule="nonzero"/></clipPath><clipPath id="bfde24a434"><path d="M 182 33 L 194 33 L 194 53 L 182 53 Z M 182 33 " clip-rule="nonzero"/></clipPath><clipPath id="fe0d805c92"><path d="M 64.863281 15.492188 L 352.972656 56.398438 L 309.957031 359.359375 L 21.847656 318.453125 Z M 64.863281 15.492188 " clip-rule="nonzero"/></clipPath><clipPath id="1b7b7582c8"><path d="M 64.863281 15.492188 L 352.972656 56.398438 L 309.957031 359.359375 L 21.847656 318.453125 Z M 64.863281 15.492188 " clip-rule="nonzero"/></clipPath><clipPath id="2b4c1723a3"><path d="M 256 295 L 272 295 L 272 313 L 256 313 Z M 256 295 " clip-rule="nonzero"/></clipPath><clipPath id="ffda862ec9"><path d="M 64.863281 15.492188 L 352.972656 56.398438 L 309.957031 359.359375 L 21.847656 318.453125 Z M 64.863281 15.492188 " clip-rule="nonzero"/></clipPath><clipPath id="0af03465e7"><path d="M 64.863281 15.492188 L 352.972656 56.398438 L 309.957031 359.359375 L 21.847656 318.453125 Z M 64.863281 15.492188 " clip-rule="nonzero"/></clipPath><clipPath id="fa03190522"><path d="M 311 154 L 323 154 L 323 167 L 311 167 Z M 311 154 " clip-rule="nonzero"/></clipPath><clipPath id="e722a428cb"><path d="M 64.863281 15.492188 L 352.972656 56.398438 L 309.957031 359.359375 L 21.847656 318.453125 Z M 64.863281 15.492188 " clip-rule="nonzero"/></clipPath><clipPath id="c0b86625c4"><path d="M 64.863281 15.492188 L 352.972656 56.398438 L 309.957031 359.359375 L 21.847656 318.453125 Z M 64.863281 15.492188 " clip-rule="nonzero"/></clipPath><clipPath id="b4e781ceb5"><path d="M 93 153 L 105 153 L 105 165 L 93 165 Z M 93 153 " clip-rule="nonzero"/></clipPath><clipPath id="def03e0456"><path d="M 64.863281 15.492188 L 352.972656 56.398438 L 309.957031 359.359375 L 21.847656 318.453125 Z M 64.863281 15.492188 " clip-rule="nonzero"/></clipPath><clipPath id="0a41ce786c"><path d="M 64.863281 15.492188 L 352.972656 56.398438 L 309.957031 359.359375 L 21.847656 318.453125 Z M 64.863281 15.492188 " clip-rule="nonzero"/></clipPath><clipPath id="c7fbd6f347"><path d="M 207 90 L 215 90 L 215 97 L 207 97 Z M 207 90 " clip-rule="nonzero"/></clipPath><clipPath id="fbb7d7f52a"><path d="M 64.863281 15.492188 L 352.972656 56.398438 L 309.957031 359.359375 L 21.847656 318.453125 Z M 64.863281 15.492188 " clip-rule="nonzero"/></clipPath><clipPath id="998cd028c6"><path d="M 64.863281 15.492188 L 352.972656 56.398438 L 309.957031 359.359375 L 21.847656 318.453125 Z M 64.863281 15.492188 " clip-rule="nonzero"/></clipPath><clipPath id="c36f96370d"><path d="M 180 283 L 187 283 L 187 291 L 180 291 Z M 180 283 " clip-rule="nonzero"/></clipPath><clipPath id="8b2219ed74"><path d="M 64.863281 15.492188 L 352.972656 56.398438 L 309.957031 359.359375 L 21.847656 318.453125 Z M 64.863281 15.492188 " clip-rule="nonzero"/></clipPath><clipPath id="343d085d00"><path d="M 64.863281 15.492188 L 352.972656 56.398438 L 309.957031 359.359375 L 21.847656 318.453125 Z M 64.863281 15.492188 " clip-rule="nonzero"/></clipPath><clipPath id="702261d727"><path d="M 77 57 L 105 57 L 105 92 L 77 92 Z M 77 57 " clip-rule="nonzero"/></clipPath><clipPath id="ae1beccd19"><path d="M 64.863281 15.492188 L 352.972656 56.398438 L 309.957031 359.359375 L 21.847656 318.453125 Z M 64.863281 15.492188 " clip-rule="nonzero"/></clipPath><clipPath id="a9013fde08"><path d="M 64.863281 15.492188 L 352.972656 56.398438 L 309.957031 359.359375 L 21.847656 318.453125 Z M 64.863281 15.492188 " clip-rule="nonzero"/></clipPath><clipPath id="5c557f6f64"><path d="M 246 132 L 266 132 L 266 156 L 246 156 Z M 246 132 " clip-rule="nonzero"/></clipPath><clipPath id="e6433d14d2"><path d="M 64.863281 15.492188 L 352.972656 56.398438 L 309.957031 359.359375 L 21.847656 318.453125 Z M 64.863281 15.492188 " clip-rule="nonzero"/></clipPath><clipPath id="41c39743a1"><path d="M 64.863281 15.492188 L 352.972656 56.398438 L 309.957031 359.359375 L 21.847656 318.453125 Z M 64.863281 15.492188 " clip-rule="nonzero"/></clipPath><clipPath id="000a5c6c6a"><path d="M 157 315 L 177 315 L 177 339 L 157 339 Z M 157 315 " clip-rule="nonzero"/></clipPath><clipPath id="46e32ff52e"><path d="M 64.863281 15.492188 L 352.972656 56.398438 L 309.957031 359.359375 L 21.847656 318.453125 Z M 64.863281 15.492188 " clip-rule="nonzero"/></clipPath><clipPath id="e3e1f15913"><path d="M 64.863281 15.492188 L 352.972656 56.398438 L 309.957031 359.359375 L 21.847656 318.453125 Z M 64.863281 15.492188 " clip-rule="nonzero"/></clipPath></defs><g clip-path="url(#bd29ff3f48)"><g clip-path="url(#8440d70389)"><g clip-path="url(#8be9346b17)"><path fill="#ffffff" d="M 167.617188 327.453125 C 146.539062 324.460938 128.886719 306.601562 117.921875 277.171875 C 107.007812 247.878906 104 210.578125 109.457031 172.148438 C 114.914062 133.714844 128.183594 98.726562 146.820312 73.628906 C 165.546875 48.414062 187.46875 36.175781 208.550781 39.167969 C 229.628906 42.160156 247.277344 60.015625 258.246094 89.449219 C 269.160156 118.742188 272.167969 156.039062 266.710938 194.472656 C 261.253906 232.90625 247.984375 267.894531 229.34375 292.992188 C 210.617188 318.207031 188.695312 330.445312 167.617188 327.453125 Z M 208.359375 40.507812 C 165.742188 34.457031 121.976562 93.59375 110.796875 172.335938 C 99.617188 251.078125 125.191406 320.0625 167.808594 326.113281 C 210.421875 332.164062 254.1875 273.023438 265.371094 194.285156 C 276.550781 115.542969 250.972656 46.558594 208.359375 40.507812 Z M 208.359375 40.507812 " fill-opacity="1" fill-rule="nonzero"/></g></g></g><g clip-path="url(#69c565dc20)"><g clip-path="url(#dd2ed2c9b9)"><g clip-path="url(#e1058c39ee)"><path fill="#ffffff" d="M 176.917969 261.9375 C 138.488281 256.480469 103.5 243.210938 78.402344 224.570312 C 53.1875 205.847656 40.949219 183.925781 43.941406 162.84375 C 46.933594 141.761719 64.789062 124.113281 94.222656 113.148438 C 123.515625 102.234375 160.8125 99.226562 199.246094 104.683594 C 237.679688 110.140625 272.667969 123.410156 297.761719 142.046875 C 322.980469 160.773438 335.21875 182.695312 332.226562 203.777344 C 329.230469 224.855469 311.375 242.503906 281.941406 253.472656 C 252.648438 264.386719 215.351562 267.394531 176.917969 261.9375 Z M 199.058594 106.023438 C 120.316406 94.84375 51.332031 120.417969 45.28125 163.035156 C 39.230469 205.648438 98.367188 249.417969 177.109375 260.597656 C 255.851562 271.777344 324.835938 246.203125 330.886719 203.585938 C 336.9375 160.96875 277.796875 117.203125 199.058594 106.023438 Z M 199.058594 106.023438 " fill-opacity="1" fill-rule="nonzero"/></g></g></g><g clip-path="url(#8c1714d0cc)"><g clip-path="url(#7c2b45984c)"><g clip-path="url(#4b894a3fff)"><path fill="#ffffff" d="M 108.464844 290.1875 C 92.152344 287.871094 79.351562 281.078125 71.222656 270.140625 C 58.527344 253.050781 58.808594 227.949219 72.015625 199.449219 C 85.160156 171.089844 109.558594 142.71875 140.71875 119.566406 L 141.121094 120.109375 L 140.71875 119.566406 C 171.875 96.414062 206.082031 81.238281 237.027344 76.835938 C 268.125 72.414062 292.242188 79.386719 304.941406 96.476562 C 317.640625 113.566406 317.359375 138.671875 304.152344 167.167969 C 291.007812 195.53125 266.605469 223.902344 235.449219 247.054688 C 204.289062 270.207031 170.085938 285.378906 139.136719 289.785156 C 127.941406 291.375 117.644531 291.492188 108.464844 290.1875 Z M 267.511719 77.769531 C 258.457031 76.484375 248.292969 76.601562 237.21875 78.175781 C 206.488281 82.546875 172.503906 97.632812 141.527344 120.652344 C 77.6875 168.085938 46.640625 234.785156 72.3125 269.335938 C 80.371094 280.183594 93.089844 286.59375 108.707031 288.8125 C 142.832031 293.660156 190.847656 278.507812 234.640625 245.96875 C 265.621094 222.949219 289.871094 194.761719 302.925781 166.601562 C 315.914062 138.574219 316.246094 113.957031 303.855469 97.285156 C 295.953125 86.648438 283.457031 80.035156 267.511719 77.769531 Z M 267.511719 77.769531 " fill-opacity="1" fill-rule="nonzero"/></g></g></g><g clip-path="url(#a904ed34fb)"><g clip-path="url(#37608ebe61)"><g clip-path="url(#f5a6706c53)"><path fill="#ffffff" d="M 234.335938 308.742188 C 224.925781 307.40625 214.808594 304.285156 204.222656 299.378906 C 175.863281 286.234375 147.492188 261.832031 124.339844 230.675781 C 101.1875 199.515625 86.011719 165.3125 81.609375 134.363281 C 77.1875 103.269531 84.160156 79.148438 101.25 66.449219 C 118.339844 53.753906 143.445312 54.03125 171.941406 67.242188 C 200.304688 80.386719 228.675781 104.785156 251.828125 135.945312 C 274.980469 167.101562 290.152344 201.308594 294.558594 232.253906 C 298.980469 263.351562 292.003906 287.46875 274.914062 300.167969 C 264.175781 308.152344 250.265625 311.003906 234.335938 308.742188 Z M 141.640625 59.214844 C 126.070312 57.003906 112.507812 59.773438 102.058594 67.539062 C 85.386719 79.925781 78.597656 103.59375 82.949219 134.175781 C 87.320312 164.902344 102.40625 198.886719 125.425781 229.867188 C 172.859375 293.707031 239.558594 324.753906 274.109375 299.082031 C 308.660156 273.410156 298.175781 200.589844 250.742188 136.753906 C 227.722656 105.773438 199.535156 81.523438 171.375 68.46875 C 160.910156 63.621094 150.917969 60.535156 141.640625 59.214844 Z M 141.640625 59.214844 " fill-opacity="1" fill-rule="nonzero"/></g></g></g><g clip-path="url(#3c0cbab363)"><g clip-path="url(#92e9c4900c)"><g clip-path="url(#4f30b61c2d)"><path fill="#ffffff" d="M 79.945312 275.214844 L 81.925781 272.6875 L 80.726562 269.710938 L 81.179688 266.53125 L 78.652344 264.550781 L 77.453125 261.574219 L 74.277344 261.125 L 71.75 259.144531 L 68.773438 260.339844 L 65.59375 259.890625 L 63.613281 262.417969 L 60.636719 263.617188 L 60.183594 266.792969 L 58.207031 269.320312 L 59.402344 272.296875 L 58.953125 275.476562 L 61.480469 277.457031 L 62.675781 280.433594 L 65.855469 280.882812 L 68.382812 282.863281 L 71.359375 281.667969 L 74.539062 282.117188 L 76.515625 279.589844 L 79.496094 278.394531 Z M 79.945312 275.214844 " fill-opacity="1" fill-rule="nonzero"/></g></g></g><g clip-path="url(#bfde24a434)"><g clip-path="url(#fe0d805c92)"><g clip-path="url(#1b7b7582c8)"><path fill="#ffffff" d="M 185.8125 42.007812 C 186.417969 37.734375 189.792969 34.539062 193.863281 33.972656 C 193.550781 33.894531 193.230469 33.832031 192.90625 33.785156 C 187.738281 33.050781 182.953125 36.644531 182.21875 41.816406 C 181.484375 46.984375 185.078125 51.769531 190.25 52.503906 C 191.144531 52.632812 192.03125 52.628906 192.882812 52.507812 C 188.238281 51.355469 185.125 46.851562 185.8125 42.007812 Z M 185.8125 42.007812 " fill-opacity="1" fill-rule="nonzero"/></g></g></g><g clip-path="url(#2b4c1723a3)"><g clip-path="url(#ffda862ec9)"><g clip-path="url(#0af03465e7)"><path fill="#ffffff" d="M 269.039062 308.339844 C 266.597656 306.203125 266.347656 302.496094 268.484375 300.054688 C 269.375 299.035156 270.539062 298.398438 271.769531 298.15625 C 271.570312 297.945312 271.359375 297.738281 271.132812 297.539062 C 267.550781 294.40625 262.101562 294.769531 258.96875 298.355469 C 255.832031 301.9375 256.195312 307.386719 259.78125 310.519531 C 263.363281 313.652344 268.804688 313.292969 271.941406 309.710938 C 270.898438 309.539062 269.890625 309.085938 269.039062 308.339844 Z M 269.039062 308.339844 " fill-opacity="1" fill-rule="nonzero"/></g></g></g><g clip-path="url(#fa03190522)"><g clip-path="url(#e722a428cb)"><g clip-path="url(#c0b86625c4)"><path fill="#ffffff" d="M 322.199219 161.277344 C 322.148438 161.640625 322.0625 161.996094 321.941406 162.339844 C 321.820312 162.683594 321.664062 163.015625 321.476562 163.332031 C 321.292969 163.644531 321.078125 163.941406 320.832031 164.210938 C 320.589844 164.484375 320.320312 164.730469 320.027344 164.953125 C 319.734375 165.171875 319.421875 165.359375 319.09375 165.519531 C 318.761719 165.679688 318.421875 165.804688 318.066406 165.894531 C 317.710938 165.984375 317.351562 166.039062 316.988281 166.0625 C 316.621094 166.082031 316.257812 166.066406 315.894531 166.015625 C 315.53125 165.960938 315.179688 165.875 314.832031 165.753906 C 314.488281 165.632812 314.15625 165.480469 313.839844 165.292969 C 313.527344 165.109375 313.234375 164.894531 312.960938 164.648438 C 312.6875 164.40625 312.441406 164.136719 312.21875 163.84375 C 312 163.550781 311.8125 163.238281 311.652344 162.910156 C 311.496094 162.578125 311.371094 162.238281 311.277344 161.882812 C 311.1875 161.527344 311.132812 161.167969 311.109375 160.800781 C 311.089844 160.4375 311.105469 160.074219 311.15625 159.710938 C 311.210938 159.347656 311.296875 158.992188 311.417969 158.648438 C 311.539062 158.304688 311.691406 157.972656 311.878906 157.65625 C 312.0625 157.34375 312.28125 157.046875 312.523438 156.773438 C 312.769531 156.503906 313.035156 156.257812 313.328125 156.035156 C 313.621094 155.816406 313.933594 155.628906 314.261719 155.46875 C 314.59375 155.308594 314.933594 155.183594 315.289062 155.09375 C 315.644531 155.003906 316.003906 154.945312 316.371094 154.925781 C 316.734375 154.90625 317.101562 154.921875 317.460938 154.972656 C 317.824219 155.023438 318.179688 155.113281 318.523438 155.234375 C 318.871094 155.355469 319.199219 155.507812 319.515625 155.695312 C 319.832031 155.878906 320.125 156.09375 320.398438 156.339844 C 320.667969 156.582031 320.917969 156.851562 321.136719 157.144531 C 321.355469 157.4375 321.546875 157.75 321.703125 158.078125 C 321.863281 158.410156 321.988281 158.75 322.078125 159.105469 C 322.167969 159.460938 322.226562 159.820312 322.246094 160.1875 C 322.265625 160.550781 322.25 160.914062 322.199219 161.277344 Z M 322.199219 161.277344 " fill-opacity="1" fill-rule="nonzero"/></g></g></g><g clip-path="url(#b4e781ceb5)"><g clip-path="url(#def03e0456)"><g clip-path="url(#0a41ce786c)"><path fill="#ffffff" d="M 104.207031 159.632812 C 104.15625 159.996094 104.070312 160.351562 103.949219 160.695312 C 103.828125 161.042969 103.671875 161.371094 103.488281 161.6875 C 103.300781 162.003906 103.085938 162.296875 102.839844 162.570312 C 102.597656 162.839844 102.328125 163.089844 102.035156 163.308594 C 101.742188 163.527344 101.433594 163.71875 101.101562 163.875 C 100.773438 164.035156 100.429688 164.160156 100.074219 164.25 C 99.722656 164.339844 99.359375 164.398438 98.996094 164.417969 C 98.628906 164.4375 98.265625 164.421875 97.902344 164.371094 C 97.539062 164.320312 97.1875 164.234375 96.839844 164.113281 C 96.496094 163.992188 96.164062 163.835938 95.851562 163.652344 C 95.535156 163.464844 95.242188 163.25 94.96875 163.003906 C 94.695312 162.761719 94.449219 162.492188 94.230469 162.199219 C 94.007812 161.90625 93.820312 161.59375 93.660156 161.265625 C 93.503906 160.933594 93.378906 160.59375 93.289062 160.238281 C 93.195312 159.882812 93.140625 159.523438 93.121094 159.160156 C 93.101562 158.792969 93.117188 158.429688 93.167969 158.066406 C 93.21875 157.703125 93.304688 157.351562 93.425781 157.003906 C 93.546875 156.660156 93.699219 156.328125 93.886719 156.011719 C 94.074219 155.699219 94.289062 155.40625 94.53125 155.132812 C 94.777344 154.859375 95.046875 154.613281 95.339844 154.394531 C 95.628906 154.171875 95.941406 153.984375 96.273438 153.824219 C 96.601562 153.667969 96.945312 153.542969 97.300781 153.449219 C 97.652344 153.359375 98.011719 153.304688 98.378906 153.285156 C 98.746094 153.261719 99.109375 153.277344 99.472656 153.328125 C 99.832031 153.382812 100.1875 153.46875 100.53125 153.589844 C 100.878906 153.710938 101.207031 153.863281 101.523438 154.050781 C 101.839844 154.238281 102.132812 154.453125 102.40625 154.695312 C 102.679688 154.941406 102.925781 155.207031 103.144531 155.5 C 103.363281 155.792969 103.554688 156.105469 103.710938 156.433594 C 103.871094 156.765625 103.996094 157.105469 104.085938 157.460938 C 104.179688 157.816406 104.234375 158.175781 104.253906 158.542969 C 104.273438 158.90625 104.257812 159.273438 104.207031 159.632812 Z M 104.207031 159.632812 " fill-opacity="1" fill-rule="nonzero"/></g></g></g><g clip-path="url(#c7fbd6f347)"><g clip-path="url(#fbb7d7f52a)"><g clip-path="url(#998cd028c6)"><path fill="#ffffff" d="M 214.335938 93.871094 C 214.269531 94.316406 214.125 94.734375 213.898438 95.121094 C 213.667969 95.507812 213.375 95.835938 213.015625 96.105469 C 212.65625 96.378906 212.257812 96.570312 211.820312 96.679688 C 211.386719 96.792969 210.945312 96.816406 210.5 96.753906 C 210.054688 96.691406 209.640625 96.542969 209.25 96.316406 C 208.863281 96.085938 208.535156 95.792969 208.265625 95.433594 C 207.996094 95.074219 207.804688 94.675781 207.691406 94.242188 C 207.582031 93.804688 207.554688 93.363281 207.621094 92.917969 C 207.683594 92.472656 207.828125 92.058594 208.058594 91.671875 C 208.285156 91.285156 208.582031 90.953125 208.941406 90.683594 C 209.300781 90.414062 209.695312 90.222656 210.132812 90.109375 C 210.566406 90 211.007812 89.976562 211.453125 90.039062 C 211.898438 90.101562 212.316406 90.246094 212.703125 90.476562 C 213.089844 90.703125 213.417969 91 213.6875 91.359375 C 213.957031 91.71875 214.148438 92.117188 214.261719 92.550781 C 214.375 92.988281 214.398438 93.425781 214.335938 93.871094 Z M 214.335938 93.871094 " fill-opacity="1" fill-rule="nonzero"/></g></g></g><g clip-path="url(#c36f96370d)"><g clip-path="url(#8b2219ed74)"><g clip-path="url(#343d085d00)"><path fill="#ffffff" d="M 186.832031 287.582031 C 186.765625 288.027344 186.621094 288.445312 186.394531 288.832031 C 186.164062 289.21875 185.871094 289.546875 185.511719 289.816406 C 185.152344 290.085938 184.753906 290.277344 184.316406 290.390625 C 183.882812 290.503906 183.441406 290.527344 182.996094 290.464844 C 182.550781 290.402344 182.132812 290.253906 181.746094 290.027344 C 181.359375 289.796875 181.03125 289.503906 180.761719 289.144531 C 180.492188 288.785156 180.300781 288.386719 180.1875 287.949219 C 180.078125 287.515625 180.050781 287.074219 180.113281 286.628906 C 180.179688 286.183594 180.324219 285.769531 180.554688 285.378906 C 180.78125 284.992188 181.078125 284.664062 181.4375 284.394531 C 181.796875 284.125 182.191406 283.933594 182.628906 283.820312 C 183.0625 283.710938 183.503906 283.683594 183.949219 283.75 C 184.394531 283.8125 184.8125 283.957031 185.199219 284.1875 C 185.585938 284.414062 185.914062 284.710938 186.183594 285.070312 C 186.453125 285.429688 186.644531 285.824219 186.757812 286.261719 C 186.871094 286.695312 186.894531 287.136719 186.832031 287.582031 Z M 186.832031 287.582031 " fill-opacity="1" fill-rule="nonzero"/></g></g></g><g clip-path="url(#702261d727)"><g clip-path="url(#ae1beccd19)"><g clip-path="url(#a9013fde08)"><path fill="#ffffff" d="M 104.828125 75.949219 C 103.773438 75.933594 102.742188 75.878906 101.707031 75.917969 C 99.332031 76.015625 97.019531 76.515625 94.886719 78.085938 C 93.171875 79.347656 91.910156 81.125 90.953125 83.238281 C 90.148438 85.015625 89.589844 86.890625 89.175781 88.824219 C 88.984375 89.714844 88.808594 90.609375 88.703125 91.125 C 88.769531 90.09375 88.898438 88.679688 88.945312 87.265625 C 89.023438 84.925781 88.84375 82.632812 88.183594 80.464844 C 87.292969 77.554688 85.613281 75.554688 83.367188 74.222656 C 81.882812 73.34375 80.308594 72.765625 78.675781 72.390625 C 78.316406 72.308594 77.960938 72.21875 77.601562 72.082031 C 77.734375 72.082031 77.871094 72.070312 78.003906 72.082031 C 80.144531 72.242188 82.28125 72.140625 84.40625 71.460938 C 87.628906 70.429688 89.9375 68.011719 91.472656 64.402344 C 92.4375 62.128906 93.035156 59.71875 93.46875 57.257812 L 93.476562 57.214844 C 93.40625 58.984375 93.300781 60.757812 93.316406 62.519531 C 93.339844 64.988281 93.769531 67.332031 94.800781 69.425781 C 95.691406 71.230469 96.945312 72.542969 98.449219 73.535156 C 100.25 74.722656 102.21875 75.371094 104.253906 75.804688 C 104.441406 75.847656 104.625 75.898438 104.828125 75.949219 Z M 104.828125 75.949219 " fill-opacity="1" fill-rule="nonzero"/></g></g></g><g clip-path="url(#5c557f6f64)"><g clip-path="url(#e6433d14d2)"><g clip-path="url(#41c39743a1)"><path fill="#ffffff" d="M 265.265625 145.164062 C 264.554688 145.152344 263.855469 145.113281 263.15625 145.140625 C 261.550781 145.207031 259.984375 145.546875 258.542969 146.609375 C 257.382812 147.464844 256.527344 148.664062 255.878906 150.097656 C 255.335938 151.296875 254.957031 152.566406 254.675781 153.875 C 254.546875 154.476562 254.429688 155.082031 254.355469 155.433594 C 254.402344 154.734375 254.488281 153.777344 254.519531 152.820312 C 254.574219 151.238281 254.453125 149.6875 254.003906 148.21875 C 253.40625 146.25 252.265625 144.898438 250.746094 143.996094 C 249.742188 143.398438 248.675781 143.007812 247.570312 142.753906 C 247.328125 142.699219 247.089844 142.636719 246.84375 142.546875 C 246.9375 142.546875 247.027344 142.539062 247.117188 142.546875 C 248.566406 142.652344 250.011719 142.585938 251.449219 142.125 C 253.628906 141.429688 255.191406 139.789062 256.230469 137.351562 C 256.882812 135.808594 257.289062 134.179688 257.582031 132.515625 L 257.585938 132.484375 C 257.539062 133.683594 257.46875 134.882812 257.480469 136.074219 C 257.496094 137.746094 257.785156 139.328125 258.484375 140.75 C 259.085938 141.96875 259.933594 142.859375 260.949219 143.527344 C 262.171875 144.332031 263.503906 144.769531 264.878906 145.066406 C 265.003906 145.09375 265.128906 145.128906 265.265625 145.164062 Z M 265.265625 145.164062 " fill-opacity="1" fill-rule="nonzero"/></g></g></g><g clip-path="url(#000a5c6c6a)"><g clip-path="url(#46e32ff52e)"><g clip-path="url(#e3e1f15913)"><path fill="#ffffff" d="M 176.386719 328.570312 C 175.675781 328.558594 174.976562 328.519531 174.277344 328.546875 C 172.671875 328.613281 171.105469 328.953125 169.664062 330.015625 C 168.503906 330.867188 167.648438 332.070312 167 333.5 C 166.457031 334.703125 166.078125 335.972656 165.796875 337.28125 C 165.667969 337.882812 165.550781 338.488281 165.476562 338.839844 C 165.523438 338.140625 165.609375 337.183594 165.640625 336.226562 C 165.695312 334.644531 165.574219 333.09375 165.125 331.625 C 164.527344 329.652344 163.386719 328.304688 161.867188 327.398438 C 160.863281 326.804688 159.796875 326.414062 158.691406 326.160156 C 158.449219 326.105469 158.210938 326.042969 157.964844 325.953125 C 158.058594 325.953125 158.148438 325.945312 158.238281 325.953125 C 159.6875 326.058594 161.132812 325.992188 162.570312 325.53125 C 164.75 324.832031 166.3125 323.195312 167.351562 320.753906 C 168.003906 319.214844 168.410156 317.585938 168.703125 315.917969 L 168.707031 315.890625 C 168.660156 317.089844 168.589844 318.289062 168.601562 319.480469 C 168.617188 321.152344 168.90625 322.734375 169.605469 324.15625 C 170.207031 325.375 171.054688 326.265625 172.070312 326.933594 C 173.292969 327.738281 174.625 328.175781 176 328.472656 C 176.125 328.5 176.25 328.535156 176.386719 328.566406 Z M 176.386719 328.570312 " fill-opacity="1" fill-rule="nonzero"/></g></g></g><g fill="#ffffff" fill-opacity="1"><g transform="translate(126.475527, 213.968431)"><g><path d="M 30.71875 1.15625 C 25.6875 1.15625 21.351562 0.144531 17.71875 -1.875 C 14.09375 -3.894531 11.296875 -6.769531 9.328125 -10.5 C 7.367188 -14.238281 6.390625 -18.707031 6.390625 -23.90625 L 6.390625 -58.125 L 19.59375 -58.125 L 19.59375 -24.828125 C 19.59375 -15.859375 23.300781 -11.375 30.71875 -11.375 C 38.132812 -11.375 41.84375 -15.859375 41.84375 -24.828125 L 41.84375 -58.125 L 55.046875 -58.125 L 55.046875 -23.90625 C 55.046875 -18.707031 54.0625 -14.238281 52.09375 -10.5 C 50.132812 -6.769531 47.34375 -3.894531 43.71875 -1.875 C 40.09375 0.144531 35.757812 1.15625 30.71875 1.15625 Z M 30.71875 1.15625 "/></g></g></g><g fill="#ffffff" fill-opacity="1"><g transform="translate(187.917731, 213.968431)"><g><path d="M 0.75 0 L 23.828125 -58.125 L 36.78125 -58.125 L 59.859375 0 L 45.75 0 L 41.84375 -10.046875 L 18.765625 -10.046875 L 14.859375 0 Z M 22.171875 -20.421875 L 38.53125 -20.421875 L 30.3125 -41.6875 Z M 22.171875 -20.421875 "/></g></g></g></svg>